<svg width="31.306412" height="26.218353" viewBox="0 0 31.3064 26.2184" fill="none" xmlns="http://www.w3.org/2000/svg" xmlns:xlink="http://www.w3.org/1999/xlink">
	<desc>
			Created with Pixso.
	</desc>
	<defs/>
	<path id="Vector" d="M10.7 0.3C14.52 -0.17 18.37 -0.01 22.2 0.2C22.71 0.18 23.21 0.08 23.72 0.14C24.15 0.19 24.54 0.43 24.89 0.69C25.59 1.22 26.17 1.9 26.67 2.63C27.26 3.51 27.39 4.62 27.99 5.5C28.77 6.62 30.03 7.3 30.77 8.46C31.28 9.22 31.36 10.18 31.27 11.07C31.18 11.87 30.78 12.59 30.26 13.17C29.56 13.93 28.76 14.62 28.24 15.53C27.89 16.14 27.76 16.84 27.42 17.44C26.62 18.68 25.45 19.6 24.23 20.36C22.46 21.46 20.54 22.24 18.7 23.18C17.83 23.61 17 24.11 16.11 24.5C15.29 24.87 14.4 24.96 13.52 25.13C12.77 25.24 12.03 25.46 11.28 25.63C9.45 26.04 7.56 26.35 5.68 26.15C4.39 26.01 3.09 25.53 2.19 24.54C1.84 24.13 1.51 23.68 1.33 23.17C1.22 21.61 1.43 20.05 1.62 18.51C1.81 17.02 1.92 15.49 1.61 14.02C1.31 12.85 0.59 11.85 0.23 10.7C-0.05 9.83 -0.11 8.86 0.22 7.99C0.76 6.97 1.82 6.38 2.32 5.33C2.6 4.77 2.65 4.13 2.63 3.51C3.51 2.61 4.61 1.96 5.76 1.49C7.34 0.85 9.02 0.51 10.7 0.3Z" fill="#0D0D0D" fill-opacity="1.000000" fill-rule="nonzero"/>
	<path id="Vector" d="M8.88 1.7C12.75 1.14 16.68 0.9 20.6 1.04C21.52 1.1 22.45 1.04 23.37 1.16C24.15 1.26 24.85 1.7 25.35 2.28C26.55 3.66 26.92 5.55 28.15 6.91C27.62 6.96 27.1 6.82 26.57 6.89C26.42 6.9 26.28 6.98 26.15 7.07C26.95 6.97 27.78 7 28.52 7.32C29.54 7.73 30.38 8.6 30.69 9.65C30.92 10.47 30.8 11.38 30.37 12.11C29.87 12.98 29.05 13.64 28.14 14.06C28.18 14.08 28.22 14.1 28.27 14.12C28.43 14.05 28.58 13.96 28.72 13.86C28.75 13.9 28.79 13.99 28.81 14.03C28.57 14.18 28.32 14.31 28.14 14.54C27.73 15.03 27.61 15.68 27.37 16.26C27.13 16.93 26.65 17.49 26.15 17.99C24.94 19.15 23.45 19.96 21.96 20.71C20.89 21.23 19.81 21.7 18.73 22.21C17.8 22.64 16.92 23.2 15.98 23.62C15.77 23.71 15.56 23.81 15.34 23.83C15.01 23.84 14.7 23.74 14.37 23.78C13.81 23.84 13.29 24.07 12.75 24.25C11.65 24.66 10.49 24.86 9.33 25.03C8.03 25.2 6.7 25.28 5.39 25.11C4.32 24.97 3.2 24.66 2.42 23.89C2 23.45 1.65 22.86 1.71 22.24C1.69 19.72 2.37 17.24 2.17 14.72C2.08 13.95 1.95 13.15 1.54 12.48C1.21 11.91 0.75 11.41 0.59 10.76C0.44 9.99 0.43 9.15 0.78 8.44C1.23 7.5 2.25 6.99 2.67 6.05C2.9 5.55 2.92 5 2.88 4.47C3.99 3.2 5.53 2.27 7.21 1.96C8.35 1.74 9.51 1.98 10.66 2.03C12.97 2.18 15.22 1.4 17.52 1.51C18.59 1.58 19.62 1.88 20.58 2.33C21.64 2.82 22.6 3.5 23.58 4.11C23.9 4.3 24.21 4.5 24.56 4.63C23.52 3.82 22.45 3.03 21.29 2.41C20.06 1.76 18.7 1.36 17.3 1.32C15 1.24 12.74 1.91 10.44 1.87C9.91 1.85 9.39 1.82 8.88 1.7Z" fill="#FCFCFC" fill-opacity="1.000000" fill-rule="nonzero"/>
	<path id="Vector" d="M14.59 2.13C16.44 1.89 18.37 1.99 20.14 2.58C21.23 2.94 22.24 3.5 23.08 4.23C23.35 4.48 23.64 4.73 23.85 5.04C22.4 3.82 20.67 2.84 18.75 2.44C17.59 2.19 16.38 2.14 15.2 2.24C14.27 2.34 13.39 2.68 12.45 2.71C10.74 2.82 9.02 2.64 7.31 2.45C7.15 2.43 6.98 2.4 6.81 2.41C6.52 2.55 6.29 2.8 5.96 2.87C6.18 2.52 6.58 2.29 7 2.24C7.86 2.15 8.68 2.42 9.52 2.5C11.22 2.65 12.91 2.37 14.59 2.13Z" fill="#0D0D0D" fill-opacity="1.000000" fill-rule="nonzero"/>
	<path id="Vector" d="M15.9 3.1C17.52 2.91 19.22 3.04 20.73 3.76C21.43 4.11 22.16 4.67 22.36 5.54C21.85 4.55 20.89 3.98 19.93 3.66C18.46 3.19 16.91 3.12 15.4 3.2C15.56 3.14 15.73 3.11 15.9 3.1Z" fill="#0D0D0D" fill-opacity="1.000000" fill-rule="nonzero"/>
	<path id="Vector" d="M7.23 3.83C8.36 3.46 9.58 3.44 10.74 3.69C10.95 3.74 11.18 3.74 11.37 3.87C11.49 3.94 11.38 4.08 11.35 4.17C10.33 3.75 9.19 3.61 8.09 3.78C7.43 3.91 6.76 4.19 6.34 4.75C6.16 4.99 6.07 5.27 5.96 5.54C5.98 5.12 6.13 4.73 6.31 4.36C6.56 4.09 6.9 3.95 7.23 3.83Z" fill="#0D0D0D" fill-opacity="1.000000" fill-rule="nonzero"/>
	<path id="Vector" d="M15.54 3.58C15.65 3.46 15.78 3.57 15.9 3.62C15.52 3.86 15.24 4.26 15.09 4.72C15.07 4.99 15.11 5.27 15.03 5.54C14.87 5.2 14.9 4.79 14.93 4.42C15.16 4.17 15.29 3.82 15.54 3.58Z" fill="#0D0D0D" fill-opacity="1.000000" fill-rule="nonzero"/>
	<path id="Vector" d="M10.43 4.61C10.5 4.58 10.57 4.56 10.65 4.53C10.72 4.73 10.81 4.93 10.93 5.09C10.92 5.58 10.93 6.06 10.92 6.55C10.62 6.2 10.91 5.64 10.8 5.21C10.69 5 10.52 4.84 10.43 4.61Z" fill="#0D0D0D" fill-opacity="1.000000" fill-rule="nonzero"/>
	<path id="Vector" d="M17.29 5.18C18.48 4.94 19.75 4.97 20.87 5.5C21.58 5.84 22.2 6.5 22.36 7.35C22.17 7.51 21.95 7.66 21.7 7.67C21.12 7.7 20.59 7.39 20.03 7.35C18.46 7.21 16.91 7.75 15.55 8.57C15.2 8.18 14.62 8.04 14.44 7.49C14.31 7.15 14.55 6.83 14.74 6.58C15.39 5.77 16.36 5.39 17.29 5.18Z" fill="#0D0D0D" fill-opacity="1.000000" fill-rule="nonzero"/>
	<path id="Vector" d="M15.91 6.7C16.46 6.38 17.09 6.23 17.7 6.05C17.63 6.36 17.84 6.62 17.88 6.91C17.46 6.87 17.05 6.98 16.69 7.18C16.3 7.39 15.87 7.68 15.41 7.5C15.36 7.16 15.61 6.87 15.91 6.7Z" fill="#FCFCFC" fill-opacity="1.000000" fill-rule="nonzero"/>
	<path id="Vector" d="M7.13 6.15C8.01 5.93 8.95 6.08 9.8 6.39C10.37 6.61 10.96 6.91 11.31 7.46C11.66 7.35 12.07 7.19 12.42 7.41C12.41 7.55 12.42 7.72 12.3 7.83C12.02 8.11 11.55 8.08 11.3 8.41C11.3 8.93 11.3 9.45 11.3 9.97C10.86 10.47 10.04 10.57 9.83 11.28C10.18 11.91 10.61 12.58 11.31 12.82C11.59 12.84 11.77 12.58 12.01 12.47C12.09 12.52 12.18 12.58 12.27 12.63C12.13 12.98 11.96 13.35 11.63 13.55C11.42 13.67 11.16 13.59 10.97 13.47C10.29 13.02 9.89 12.25 9.22 11.8C9.08 11.95 8.93 12.16 8.71 12.14C8.59 11.99 8.55 11.8 8.47 11.62C7.83 11.79 7.32 12.44 6.62 12.32C8.16 11.69 9.36 10.49 10.65 9.47C10.65 9.07 10.65 8.67 10.65 8.27C10.04 7.89 9.32 7.82 8.63 7.75C7.73 7.65 6.8 7.65 5.96 7.28C6.08 6.7 6.58 6.28 7.13 6.15Z" fill="#0D0D0D" fill-opacity="1.000000" fill-rule="nonzero"/>
	<path id="Vector" d="M20.87 6.57C21.02 6.52 21.2 6.56 21.32 6.76C21.37 6.83 21.36 6.95 21.36 7.05C21.25 6.88 21.1 6.88 20.96 6.85C20.88 6.83 20.88 6.67 20.87 6.57Z" fill="#FCFCFC" fill-opacity="1.000000" fill-rule="nonzero"/>
	<path id="Vector" d="M6.95 6.66C7.3 6.7 7.65 6.55 8 6.55C8.17 6.54 8.32 6.7 8.44 6.95C8.15 6.93 7.86 6.98 7.57 7.04C7.35 7.08 7.1 7.06 6.95 6.66Z" fill="#FCFCFC" fill-opacity="1.000000" fill-rule="nonzero"/>
	<path id="Vector" d="M22.85 6.56C23.37 6.47 23.83 7 24.34 6.83C24.26 7.59 23.52 7.77 23.17 7.3C23.4 7.25 23.72 7.41 23.87 7.05C23.51 7.01 23.12 6.95 22.85 6.56Z" fill="#0D0D0D" fill-opacity="1.000000" fill-rule="nonzero"/>
	<path id="Vector" d="M3.23 7.18C3.72 7.27 4.2 7.15 4.67 7.07C4.95 7.02 5.26 7.09 5.46 7.32C4.6 7.19 3.71 7.21 2.89 7.55C2.21 7.82 1.59 8.37 1.33 9.12C1.1 9.78 1.17 10.51 1.37 11.17C1.41 11.3 1.45 11.47 1.56 11.56C1.97 11.89 2.53 11.89 2.94 12.22C3.06 12.31 3.03 12.46 3.03 12.6C2.84 12.47 2.66 12.32 2.46 12.23C2.06 12.05 1.61 11.96 1.3 11.63C1 10.91 0.9 10.09 1.08 9.32C1.3 8.33 2.03 7.52 2.91 7.17C3.01 7.12 3.12 7.18 3.23 7.18Z" fill="#0D0D0D" fill-opacity="1.000000" fill-rule="nonzero"/>
	<path id="Vector" d="M25.84 7.14C26.21 7.02 26.62 7.06 27.01 7.05C27.74 7.05 28.52 7.21 29.07 7.71C29.57 8.16 29.76 8.84 29.8 9.48C29.83 9.85 29.78 10.22 29.77 10.58C29.73 10.54 29.69 10.49 29.65 10.45C29.71 9.88 29.69 9.3 29.63 8.73C29.39 8.17 28.95 7.65 28.34 7.42C27.55 7.12 26.67 7.23 25.84 7.14Z" fill="#0D0D0D" fill-opacity="1.000000" fill-rule="nonzero"/>
	<path id="Vector" d="M22.85 7.62C23.05 7.42 23.26 7.72 23.35 8.06C23.16 8.08 22.99 7.88 22.85 7.62Z" fill="#0D0D0D" fill-opacity="1.000000" fill-rule="nonzero"/>
	<path id="Vector" d="M24.84 7.64C25.79 7.44 26.83 7.6 27.63 8.2C28.36 8.73 28.86 9.62 28.81 10.56C28.8 11.36 28.37 12.09 27.79 12.6C27.56 12.08 27.86 11.57 28.03 11.08C28.24 10.54 28.13 9.91 27.87 9.4C27.62 8.89 27.14 8.53 26.61 8.38C26.14 8.22 25.65 8.24 25.16 8.27C24.67 8.77 24.01 9.04 23.36 9.22C22.51 9.45 21.61 9.52 20.74 9.38C20.15 9.27 19.53 9.05 19.16 8.54C18.96 8.27 18.89 7.93 18.88 7.6C19.64 7.71 20.08 8.49 20.8 8.72C21.45 8.94 22.17 8.86 22.79 8.6C23.49 8.31 24.09 7.79 24.84 7.64Z" fill="#0D0D0D" fill-opacity="1.000000" fill-rule="nonzero"/>
	<path id="Vector" d="M2.11 8.73C2.5 8.4 2.99 8.23 3.47 8.06C3.23 8.58 2.47 8.51 2.27 9.06C2.1 9.55 2.3 10.09 2.12 10.58C2.07 10.52 2.03 10.45 1.98 10.39C1.99 9.83 2.08 9.28 2.11 8.73Z" fill="#0D0D0D" fill-opacity="1.000000" fill-rule="nonzero"/>
	<path id="Vector" d="M3.14 8.72C3.77 8.46 4.5 8.57 5.14 8.74C5.73 8.9 6.3 9.14 6.76 9.51C7.02 9.38 7.23 9.2 7.51 9.1C7.67 9.06 7.82 9.12 7.95 9.2C7.93 9.48 7.81 9.77 7.51 9.9C6.91 10.16 6.21 10.05 5.56 10.08C5.54 9.74 5.35 9.37 4.94 9.28C4.11 9.09 3.3 9.45 2.48 9.5C2.57 9.18 2.78 8.87 3.14 8.72Z" fill="#0D0D0D" fill-opacity="1.000000" fill-rule="nonzero"/>
	<path id="Vector" d="M24.97 9.2C25.06 9.08 25.23 9.09 25.36 9.07C25.38 9.41 25.42 9.76 25.63 10.04C26.07 10.63 26.89 10.76 27.33 11.35C26.97 11.67 26.49 11.42 26.08 11.39C25.86 11.36 25.8 11.62 25.71 11.76C25.57 11.98 25.56 12.25 25.66 12.49C25.75 12.64 25.55 12.7 25.48 12.8C24.72 13.56 24.21 14.51 23.58 15.36C23.08 16.05 22.49 16.69 21.81 17.21C20.65 18.1 19.36 18.83 17.98 19.34C16.68 19.83 15.28 19.97 13.91 20.08C12.32 20.19 10.73 20.19 9.14 20.08C8.04 19.99 6.92 19.87 5.86 19.54C5.43 19.4 4.98 19.23 4.67 18.88C4.21 18.37 3.97 17.72 3.79 17.07C3.44 15.67 3.39 14.2 3.59 12.77C3.68 12.1 4.02 11.5 4.34 10.91C4.49 10.66 4.41 10.35 4.51 10.09C4.56 9.94 4.75 10.03 4.87 10.02C5.16 10.62 4.98 11.31 5.19 11.93C6.3 13.02 7.85 13.55 9.38 13.74C11.59 14 13.82 13.66 15.96 13.15C19.04 12.38 22 11.21 24.87 9.89C24.88 9.66 24.83 9.4 24.97 9.2Z" fill="#0D0D0D" fill-opacity="1.000000" fill-rule="nonzero"/>
	<path id="Vector" d="M14.9 10.64C14.92 10.22 15.33 10.04 15.66 10.09C16.07 10.14 16.52 10.26 16.82 10.61C16.92 10.88 16.89 11.18 16.88 11.47C16.84 11.88 16.72 12.38 16.34 12.56C16.17 12.66 15.98 12.56 15.8 12.5C15.8 12.37 15.78 12.23 15.83 12.11C15.94 11.87 16.21 11.77 16.29 11.51C16.35 11.32 16.29 11.13 16.26 10.95C15.83 10.76 15.33 10.87 14.9 10.64Z" fill="#0D0D0D" fill-opacity="1.000000" fill-rule="nonzero"/>
	<path id="Vector" d="M16.94 10.57C16.88 10.4 16.83 10.16 17.05 10.08C17.11 10.09 17.22 10.12 17.27 10.14C17.2 10.2 17.12 10.25 17.05 10.31C17.06 10.51 17.21 10.67 17.42 10.71C18.16 10.89 18.93 10.66 19.68 10.79C19.84 10.8 19.89 10.95 19.87 11.09C19.18 10.72 18.38 11.01 17.64 10.94C17.37 10.93 17.04 10.85 16.94 10.57Z" fill="#0D0D0D" fill-opacity="1.000000" fill-rule="nonzero"/>
	<path id="Vector" d="M1.98 10.58C2.02 10.59 2.09 10.62 2.12 10.63C2.3 10.83 2.7 10.93 2.98 11.09C2.74 11.07 2.48 11.05 2.29 10.95C2.1 10.86 2.03 10.72 1.98 10.58Z" fill="#0D0D0D" fill-opacity="1.000000" fill-rule="nonzero"/>
	<path id="Vector" d="M22.42 11.86C23.43 11.52 24.23 10.63 25.34 10.58C25.36 11.19 25.08 11.79 24.63 12.18C24 12.74 23.17 12.99 22.36 13.1C22.56 12.71 22.35 12.27 22.42 11.86Z" fill="#FCFCFC" fill-opacity="1.000000" fill-rule="nonzero"/>
	<path id="Vector" d="M29.66 10.58C29.71 10.64 29.76 10.7 29.81 10.75C29.72 11.29 29.6 11.82 29.45 12.35C28.91 12.62 28.41 12.97 27.79 13.09C27.64 13.13 27.48 13.08 27.33 13.04C27.92 12.96 28.53 12.76 28.92 12.36C29.4 11.86 29.61 11.21 29.66 10.58Z" fill="#0D0D0D" fill-opacity="1.000000" fill-rule="nonzero"/>
	<path id="Vector" d="M13.51 11.18C14.13 11.01 14.79 11.09 15.39 11.28C15.41 11.56 15.39 11.85 15.24 12.1C14.58 11.49 13.66 12.15 12.92 11.79C12.95 11.48 13.22 11.26 13.51 11.18Z" fill="#0D0D0D" fill-opacity="1.000000" fill-rule="nonzero"/>
	<path id="Vector" d="M4.47 12.51C4.47 12.36 4.47 12.22 4.47 12.1C4.47 12.28 4.47 12.45 4.47 12.6C4.47 12.58 4.47 12.53 4.47 12.51Z" fill="#FCFCFC" fill-opacity="1.000000" fill-rule="nonzero"/>
	<path id="Vector" d="M17.39 13.21C18.89 12.87 20.35 12.39 21.86 12.1C21.85 12.68 21.54 13.25 20.97 13.56C19.99 14.12 18.77 14.18 17.73 14.62C17.6 14.15 17.53 13.67 17.39 13.21Z" fill="#FCFCFC" fill-opacity="1.000000" fill-rule="nonzero"/>
	<path id="Vector" d="M4.47 14.39C4.48 13.73 4.9 13.13 5.35 12.6C5.62 13.43 5.36 14.31 5.09 15.12C4.73 14.99 4.45 14.72 4.47 14.39Z" fill="#FCFCFC" fill-opacity="1.000000" fill-rule="nonzero"/>
	<path id="Vector" d="M23.14 13.97C23.51 13.76 23.92 13.64 24.34 13.61C23.63 14.19 23.46 15.31 22.52 15.63C22.41 15.39 22.32 15.12 22.38 14.86C22.46 14.46 22.79 14.17 23.14 13.97Z" fill="#FCFCFC" fill-opacity="1.000000" fill-rule="nonzero"/>
	<path id="Vector" d="M6.15 15.42C6.06 14.83 5.7 14.07 6.29 13.61C6.6 13.89 7.02 14.03 7.44 14.13C7.49 14.49 7.2 14.77 7.08 15.1C7.02 15.28 7.12 15.46 7.2 15.63C6.86 15.52 6.52 15.34 6.15 15.42Z" fill="#FCFCFC" fill-opacity="1.000000" fill-rule="nonzero"/>
	<path id="Vector" d="M14.2 14.21C15.15 13.98 16.11 13.76 17.07 13.61C17.21 14.1 17.26 14.6 17.39 15.09C16.65 15.18 15.94 15.46 15.21 15.57C14.78 15.64 14.34 15.63 13.91 15.6C13.92 15.17 13.9 14.73 13.91 14.3C13.99 14.24 14.11 14.24 14.2 14.21Z" fill="#FCFCFC" fill-opacity="1.000000" fill-rule="nonzero"/>
	<path id="Vector" d="M7.45 15.3C7.8 14.98 7.59 14.46 7.91 14.11C8.68 14.51 9.61 14.28 10.43 14.56C10.14 14.86 10.37 15.27 10.33 15.63C9.36 15.62 8.36 15.65 7.45 15.3Z" fill="#FCFCFC" fill-opacity="1.000000" fill-rule="nonzero"/>
	<path id="Vector" d="M11.12 14.33C11.73 14.45 12.31 14.11 12.91 14.11C12.92 14.62 12.91 15.12 12.92 15.62C12.26 15.62 11.6 15.63 10.94 15.62C10.86 15.16 11.14 14.79 11.12 14.33Z" fill="#FCFCFC" fill-opacity="1.000000" fill-rule="nonzero"/>
	<path id="Vector" d="M18.4 15.91C19.46 15.63 20.45 15.15 21.41 14.62C21.32 15.19 21.45 15.81 21.86 16.21C20.89 16.81 20.05 17.65 19.02 18.15C19 17.49 18.45 17.04 18.39 16.41C18.37 16.24 18.39 16.07 18.4 15.91Z" fill="#FCFCFC" fill-opacity="1.000000" fill-rule="nonzero"/>
	<path id="Vector" d="M14.43 17.05C15.57 16.92 16.64 16.52 17.7 16.13C17.67 16.49 17.66 16.87 17.84 17.2C18.04 17.6 18.32 17.97 18.38 18.42C17.39 18.66 16.43 19.05 15.4 19.14C15.09 19.18 14.77 19.13 14.47 19.07C14.59 18.4 14.32 17.73 14.43 17.05Z" fill="#FCFCFC" fill-opacity="1.000000" fill-rule="nonzero"/>
	<path id="Vector" d="M4.51 17.04C4.46 16.91 4.46 16.77 4.48 16.63C4.6 16.99 4.81 17.28 4.93 17.63C4.99 17.8 4.96 17.99 4.9 18.15C4.84 17.74 4.64 17.41 4.51 17.04Z" fill="#FCFCFC" fill-opacity="1.000000" fill-rule="nonzero"/>
	<path id="Vector" d="M5.88 17.14C6.43 17.67 6.72 18.42 6.95 19.15C6.52 19.04 6.07 18.99 5.67 18.78C5.55 18.73 5.51 18.59 5.46 18.47C5.53 18.54 5.59 18.6 5.66 18.66C5.79 18.62 5.95 18.6 6.05 18.48C6.21 18.01 5.59 17.59 5.88 17.14Z" fill="#FCFCFC" fill-opacity="1.000000" fill-rule="nonzero"/>
	<path id="Vector" d="M10.93 17.5C11.89 17.59 12.85 17.42 13.77 17.14C13.82 17.92 13.59 18.74 13.91 19.48C13.06 19.77 12.16 19.61 11.28 19.64C11.19 18.92 11.02 18.22 10.93 17.5Z" fill="#FCFCFC" fill-opacity="1.000000" fill-rule="nonzero"/>
	<path id="Vector" d="M6.95 17.64C7.32 17.62 7.62 17.88 7.99 17.82C7.97 18.31 8.35 18.69 8.44 19.15C8.1 19.11 7.73 19.09 7.43 18.91C7.47 18.8 7.54 18.68 7.48 18.56C7.36 18.23 7.07 17.98 6.95 17.64Z" fill="#FCFCFC" fill-opacity="1.000000" fill-rule="nonzero"/>
	<path id="Vector" d="M8.94 17.74C9.4 17.62 9.94 17.55 10.34 17.89C10.8 18.31 10.86 19.03 10.93 19.65C10.47 19.67 10 19.65 9.56 19.48C9.44 18.86 9.11 18.34 8.94 17.74Z" fill="#FCFCFC" fill-opacity="1.000000" fill-rule="nonzero"/>
	<path id="Vector" d="M20.38 19.49C21.17 19.12 21.98 18.73 22.85 18.65C21.44 19.18 20.14 19.95 18.79 20.6C17.04 21.45 15.15 22.17 13.19 22.08C12.47 21.99 11.75 22.15 11.02 22.14C9.63 22.12 8.23 22.3 6.85 22.02C6.28 21.89 5.69 21.66 5.31 21.17C5.12 20.93 5.02 20.63 4.96 20.33C5.46 21.21 6.42 21.63 7.34 21.84C8.47 22.1 9.65 22.18 10.81 22.07C12.36 22 13.94 22.02 15.46 21.64C17.2 21.2 18.78 20.29 20.38 19.49Z" fill="#0D0D0D" fill-opacity="1.000000" fill-rule="nonzero"/>
	<path id="Vector" d="M21.91 19.65C22.69 19.25 23.45 18.72 24.34 18.65C23.38 19.32 22.32 19.86 21.26 20.36C17.08 22.27 12.5 23.18 7.94 23.19C7.04 23.19 6.11 23.15 5.24 22.87C4.54 22.65 3.9 22.2 3.53 21.54C3.52 21.26 3.41 20.95 3.52 20.68C3.56 20.66 3.63 20.62 3.66 20.6C3.67 20.94 3.66 21.28 3.67 21.62C4.06 22.03 4.56 22.32 5.08 22.51C5.88 22.82 6.74 22.94 7.59 23C8.92 23.09 10.26 23 11.59 22.86C15.18 22.47 18.68 21.33 21.91 19.65Z" fill="#0D0D0D" fill-opacity="1.000000" fill-rule="nonzero"/>
	<path id="Vector" d="M8.94 20.77C9.94 20.79 10.93 20.73 11.92 20.81C12.58 20.81 13.29 20.35 13.91 21.07C12.83 20.95 11.74 21.17 10.66 21.17C10.09 21.13 9.5 21.17 8.94 20.77Z" fill="#0D0D0D" fill-opacity="1.000000" fill-rule="nonzero"/>
</svg>
